<mxfile host="app.diagrams.net" modified="2023-07-27T10:39:33.678Z" agent="Mozilla/5.0 (Windows NT 10.0; Win64; x64) AppleWebKit/537.36 (KHTML, like Gecko) Chrome/115.0.0.0 Safari/537.36" etag="p8kvD-iQMGLAWGAh3hh6" version="21.6.5" type="device">
  <diagram name="Trang-1" id="lDUSRBd-4T6Q8lE5rrpU">
    <mxGraphModel dx="1050" dy="566" grid="1" gridSize="10" guides="1" tooltips="1" connect="1" arrows="1" fold="1" page="1" pageScale="1" pageWidth="827" pageHeight="1169" math="0" shadow="0">
      <root>
        <mxCell id="0" />
        <mxCell id="1" parent="0" />
        <mxCell id="0xoLmVzbU-y4o6ovwfeb-1" value="Actor" style="shape=umlActor;verticalLabelPosition=bottom;verticalAlign=top;html=1;outlineConnect=0;" vertex="1" parent="1">
          <mxGeometry x="80" y="290" width="30" height="60" as="geometry" />
        </mxCell>
        <mxCell id="0xoLmVzbU-y4o6ovwfeb-2" value="google.com" style="swimlane;whiteSpace=wrap;html=1;" vertex="1" parent="1">
          <mxGeometry x="140" y="240" width="200" height="200" as="geometry" />
        </mxCell>
        <mxCell id="0xoLmVzbU-y4o6ovwfeb-4" value="" style="image;html=1;image=img/lib/clip_art/computers/Server_Rack_128x128.png" vertex="1" parent="1">
          <mxGeometry x="550" y="300" width="80" height="80" as="geometry" />
        </mxCell>
        <mxCell id="0xoLmVzbU-y4o6ovwfeb-5" value="DB" style="shape=cylinder3;whiteSpace=wrap;html=1;boundedLbl=1;backgroundOutline=1;size=15;" vertex="1" parent="1">
          <mxGeometry x="750" y="300" width="60" height="80" as="geometry" />
        </mxCell>
        <mxCell id="0xoLmVzbU-y4o6ovwfeb-6" value="" style="endArrow=classic;html=1;rounded=0;entryX=0;entryY=0.25;entryDx=0;entryDy=0;" edge="1" parent="1" target="0xoLmVzbU-y4o6ovwfeb-4">
          <mxGeometry width="50" height="50" relative="1" as="geometry">
            <mxPoint x="350" y="320" as="sourcePoint" />
            <mxPoint x="440" y="270" as="targetPoint" />
          </mxGeometry>
        </mxCell>
        <mxCell id="0xoLmVzbU-y4o6ovwfeb-7" value="" style="endArrow=classic;html=1;rounded=0;" edge="1" parent="1">
          <mxGeometry width="50" height="50" relative="1" as="geometry">
            <mxPoint x="630" y="320" as="sourcePoint" />
            <mxPoint x="740" y="320" as="targetPoint" />
          </mxGeometry>
        </mxCell>
        <mxCell id="0xoLmVzbU-y4o6ovwfeb-8" value="" style="endArrow=classic;html=1;rounded=0;exitX=0;exitY=0.75;exitDx=0;exitDy=0;" edge="1" parent="1" source="0xoLmVzbU-y4o6ovwfeb-4">
          <mxGeometry width="50" height="50" relative="1" as="geometry">
            <mxPoint x="390" y="320" as="sourcePoint" />
            <mxPoint x="350" y="360" as="targetPoint" />
          </mxGeometry>
        </mxCell>
        <mxCell id="0xoLmVzbU-y4o6ovwfeb-9" value="" style="endArrow=classic;html=1;rounded=0;exitX=0;exitY=1;exitDx=0;exitDy=-15;exitPerimeter=0;" edge="1" parent="1" source="0xoLmVzbU-y4o6ovwfeb-5">
          <mxGeometry width="50" height="50" relative="1" as="geometry">
            <mxPoint x="560" y="370" as="sourcePoint" />
            <mxPoint x="640" y="365" as="targetPoint" />
          </mxGeometry>
        </mxCell>
        <mxCell id="0xoLmVzbU-y4o6ovwfeb-10" value="Requests" style="text;html=1;align=center;verticalAlign=middle;resizable=0;points=[];autosize=1;strokeColor=none;fillColor=none;" vertex="1" parent="1">
          <mxGeometry x="405" y="278" width="70" height="30" as="geometry" />
        </mxCell>
        <mxCell id="0xoLmVzbU-y4o6ovwfeb-11" value="Requests" style="text;html=1;align=center;verticalAlign=middle;resizable=0;points=[];autosize=1;strokeColor=none;fillColor=none;" vertex="1" parent="1">
          <mxGeometry x="635" y="278" width="70" height="30" as="geometry" />
        </mxCell>
        <mxCell id="0xoLmVzbU-y4o6ovwfeb-12" value="Reponse" style="text;html=1;align=center;verticalAlign=middle;resizable=0;points=[];autosize=1;strokeColor=none;fillColor=none;" vertex="1" parent="1">
          <mxGeometry x="655" y="338" width="70" height="30" as="geometry" />
        </mxCell>
        <mxCell id="0xoLmVzbU-y4o6ovwfeb-13" value="Reponse" style="text;html=1;align=center;verticalAlign=middle;resizable=0;points=[];autosize=1;strokeColor=none;fillColor=none;" vertex="1" parent="1">
          <mxGeometry x="395" y="338" width="70" height="30" as="geometry" />
        </mxCell>
      </root>
    </mxGraphModel>
  </diagram>
</mxfile>
